<svg width="37" height="28" viewBox="0 0 37 28" fill="none" xmlns="http://www.w3.org/2000/svg">
<path d="M18.5 7.3125C18.625 7.1875 18.8125 7.125 19 7.125C19.125 7.125 19.3125 7.1875 19.4375 7.3125L31 16.75V27C31 27.5625 30.5 28 30 28H22.9375C22.4375 28 21.9375 27.5625 21.9375 27V21C21.9375 20.5 21.5 20 20.9375 20H16.9375C16.4375 20 15.9375 20.5 15.9375 21V27C15.9375 27.5625 15.5 28 15 28H8C7.4375 28 7 27.5625 7 27V16.8125L18.5 7.3125ZM36.6875 13.75C36.875 13.875 37 14.125 37 14.3125C37 14.5 36.9375 14.6875 36.8125 14.8125L35.1875 16.75C35.0625 16.9375 34.875 17 34.625 17C34.4375 17 34.25 16.9375 34.125 16.8125L19.4375 4.75C19.3125 4.625 19.125 4.5625 19 4.5625C18.8125 4.5625 18.625 4.625 18.5 4.75L3.8125 16.8125C3.6875 16.9375 3.5 17 3.3125 17C3.0625 17 2.875 16.9375 2.75 16.75L1.125 14.8125C1.0625 14.6875 0.9375 14.5 0.9375 14.3125C0.9375 14.125 1.0625 13.875 1.25 13.75L17.0625 0.6875C17.5625 0.3125 18.25 0.0625 19 0.0625C19.6875 0.0625 20.375 0.3125 20.875 0.6875L26.5 5.3125V0.8125C26.5 0.375 26.8125 0.0625 27.25 0.0625H30.75C31.125 0.0625 31.5 0.375 31.5 0.8125V9.4375L36.6875 13.75Z" fill="#C8AB5C"/>
</svg>
