<svg width="29" height="29" viewBox="0 0 29 29" fill="none" xmlns="http://www.w3.org/2000/svg">
<path d="M14.1096 6.8125C18.0471 6.8125 21.2971 10.0625 21.2971 14C21.2971 18 18.0471 21.1875 14.1096 21.1875C10.1096 21.1875 6.92212 18 6.92212 14C6.92212 10.0625 10.1096 6.8125 14.1096 6.8125ZM14.1096 18.6875C16.6721 18.6875 18.7346 16.625 18.7346 14C18.7346 11.4375 16.6721 9.375 14.1096 9.375C11.4846 9.375 9.42212 11.4375 9.42212 14C9.42212 16.625 11.5471 18.6875 14.1096 18.6875ZM23.2346 6.5625C23.2346 7.5 22.4846 8.25 21.5471 8.25C20.6096 8.25 19.8596 7.5 19.8596 6.5625C19.8596 5.625 20.6096 4.875 21.5471 4.875C22.4846 4.875 23.2346 5.625 23.2346 6.5625ZM27.9846 8.25C28.1096 10.5625 28.1096 17.5 27.9846 19.8125C27.8596 22.0625 27.3596 24 25.7346 25.6875C24.1096 27.3125 22.1096 27.8125 19.8596 27.9375C17.5471 28.0625 10.6096 28.0625 8.29712 27.9375C6.04712 27.8125 4.10962 27.3125 2.42212 25.6875C0.797116 24 0.297116 22.0625 0.172116 19.8125C0.0471163 17.5 0.0471163 10.5625 0.172116 8.25C0.297116 6 0.797116 4 2.42212 2.375C4.10962 0.75 6.04712 0.25 8.29712 0.125C10.6096 0 17.5471 0 19.8596 0.125C22.1096 0.25 24.1096 0.75 25.7346 2.375C27.3596 4 27.8596 6 27.9846 8.25ZM24.9846 22.25C25.7346 20.4375 25.5471 16.0625 25.5471 14C25.5471 12 25.7346 7.625 24.9846 5.75C24.4846 4.5625 23.5471 3.5625 22.3596 3.125C20.4846 2.375 16.1096 2.5625 14.1096 2.5625C12.0471 2.5625 7.67212 2.375 5.85962 3.125C4.60962 3.625 3.67212 4.5625 3.17212 5.75C2.42212 7.625 2.60962 12 2.60962 14C2.60962 16.0625 2.42212 20.4375 3.17212 22.25C3.67212 23.5 4.60962 24.4375 5.85962 24.9375C7.67212 25.6875 12.0471 25.5 14.1096 25.5C16.1096 25.5 20.4846 25.6875 22.3596 24.9375C23.5471 24.4375 24.5471 23.5 24.9846 22.25Z" fill="white"/>
</svg>
