<svg width="33" height="26" viewBox="0 0 33 26" fill="none" xmlns="http://www.w3.org/2000/svg">
<path d="M29.4929 6.5C29.4929 6.8125 29.4929 7.0625 29.4929 7.375C29.4929 16.0625 22.9304 26 10.8679 26C7.11788 26 3.68038 24.9375 0.805382 23.0625C1.30538 23.125 1.80538 23.1875 2.36788 23.1875C5.43038 23.1875 8.24288 22.125 10.4929 20.375C7.61788 20.3125 5.18038 18.4375 4.36788 15.8125C4.80538 15.875 5.18038 15.9375 5.61788 15.9375C6.18038 15.9375 6.80538 15.8125 7.30538 15.6875C4.30538 15.0625 2.05538 12.4375 2.05538 9.25V9.1875C2.93038 9.6875 3.99288 9.9375 5.05538 10C3.24288 8.8125 2.11788 6.8125 2.11788 4.5625C2.11788 3.3125 2.43038 2.1875 2.99288 1.25C6.24288 5.1875 11.1179 7.8125 16.5554 8.125C16.4304 7.625 16.3679 7.125 16.3679 6.625C16.3679 3 19.3054 0.0625 22.9304 0.0625C24.8054 0.0625 26.4929 0.8125 27.7429 2.125C29.1804 1.8125 30.6179 1.25 31.8679 0.5C31.3679 2.0625 30.3679 3.3125 28.9929 4.125C30.3054 4 31.6179 3.625 32.7429 3.125C31.8679 4.4375 30.7429 5.5625 29.4929 6.5Z" fill="white"/>
</svg>
